<svg version="1.1" id="Layer_1" xmlns="http://www.w3.org/2000/svg" xmlns:xlink="http://www.w3.org/1999/xlink" x="0px" y="0px"
	 width="100%" viewBox="0 0 720 672" enable-background="new 0 0 720 672" xml:space="preserve">
<path fill="#000000" opacity="1.000000" stroke="none" 
	d="
M65.076897,398.731232 
	C55.143265,367.140869 50.086849,335.131897 50.952770,302.464905 
	C52.898685,229.055191 77.324593,164.030975 125.756462,108.529655 
	C171.515747,56.091057 228.975143,23.567570 297.127625,10.146832 
	C326.321106,4.397981 355.795410,3.257772 385.525269,6.464738 
	C441.534821,12.506498 492.176178,32.137337 536.971313,66.067795 
	C588.272339,104.926224 623.709900,155.310806 643.331299,216.723206 
	C654.399780,251.366165 659.112305,286.922546 656.998718,323.119568 
	C652.995728,391.671875 628.971191,452.521729 584.099304,504.715759 
	C540.660278,555.243225 486.101196,587.651062 421.291290,602.793030 
	C395.058746,608.921936 368.390961,611.386902 341.493286,610.139648 
	C212.778305,604.171204 104.309929,520.463989 65.076897,398.731232 
M453.983551,62.623665 
	C428.945374,52.654247 403.098511,46.243610 376.157593,44.113068 
	C348.570618,41.931427 321.277191,43.431278 294.396240,49.989456 
	C223.427567,67.303772 167.643829,106.346222 129.267624,168.629486 
	C89.234634,233.601608 79.046104,303.653992 98.987015,377.380554 
	C114.158646,433.473938 144.885941,479.905090 190.957626,515.514160 
	C254.163177,564.366089 325.643250,581.561157 403.992950,567.097534 
	C465.106293,555.815735 516.414307,525.805786 556.059448,477.937561 
	C609.680481,413.194641 629.953064,338.537170 613.123901,256.007568 
	C594.451965,164.441299 540.228516,100.433800 453.983551,62.623665 
z"/>
<path fill="#000000" opacity="1.000000" stroke="none" 
	d="
M368.220276,388.853180 
	C363.837494,385.489380 359.738251,382.355499 356.177216,378.573547 
	C354.350250,376.633301 354.232635,374.993164 356.219940,373.028992 
	C364.516266,364.829315 372.781433,356.596588 380.949982,348.269989 
	C383.770538,345.394897 385.834747,346.114288 388.502838,348.617157 
	C397.259247,356.831421 407.093445,363.249207 419.258301,365.131409 
	C427.206879,366.361267 435.226532,366.588684 443.038788,364.460419 
	C447.971802,363.116516 452.488434,360.532715 453.668121,354.992401 
	C454.971405,348.871521 453.626526,343.431854 448.188324,339.499847 
	C439.111084,332.936615 428.486328,329.951660 418.145752,326.278412 
	C404.427856,321.405365 391.067291,315.890411 380.533051,305.273407 
	C368.508331,293.154297 365.673218,278.263519 367.161255,261.972900 
	C369.467102,236.729019 387.897491,220.134109 410.342102,214.799484 
	C441.601929,207.369629 470.837372,211.559082 496.582581,232.143341 
	C502.680695,237.019012 502.613068,237.939270 497.190552,243.357910 
	C490.118134,250.425339 482.958496,257.409363 476.032684,264.617859 
	C472.991211,267.783417 470.658905,268.096130 467.252228,264.941132 
	C457.893799,256.274017 446.947144,251.186127 433.885345,251.294510 
	C430.122437,251.325745 426.609802,252.240936 423.189850,253.516891 
	C414.435486,256.783142 412.385803,266.840912 419.197235,273.292999 
	C422.225922,276.161865 425.836029,278.242218 429.728729,279.877136 
	C442.777954,285.357635 456.510162,289.020355 469.370270,295.016998 
	C506.868469,312.502258 508.481201,350.856689 496.181641,374.689178 
	C489.021637,388.563049 476.751923,396.617340 462.338715,400.972565 
	C437.099518,408.599030 411.816956,408.271515 386.863800,399.128021 
	C380.233002,396.698364 374.297119,393.023407 368.220276,388.853180 
z"/>
<path fill="#000000" opacity="1.000000" stroke="none" 
	d="
M344.873657,242.878540 
	C337.440704,250.314941 330.144897,257.396606 323.122284,264.739563 
	C320.065338,267.935974 317.866943,268.212799 314.457275,265.008728 
	C305.017242,256.137970 293.851135,251.140808 280.625824,251.284744 
	C277.533813,251.318405 274.732880,252.252289 271.868378,253.080414 
	C267.691895,254.287796 263.965576,256.207245 263.159332,260.985992 
	C262.250641,266.371979 263.108246,271.251648 267.966644,274.765167 
	C274.556366,279.530762 282.182526,281.957275 289.684204,284.696320 
	C302.796753,289.483978 316.268066,293.422058 327.781281,301.833862 
	C347.232971,316.045685 352.836395,335.543304 348.930450,358.277740 
	C344.932892,381.545837 329.761017,394.967133 307.983154,401.310974 
	C281.228424,409.104523 254.705078,408.165222 228.957321,396.881622 
	C219.880157,392.903748 212.146896,386.832916 204.965836,380.007416 
	C201.793976,376.992615 201.317780,374.813629 204.834641,371.519531 
	C212.489883,364.349182 219.881836,356.881470 227.101913,349.270142 
	C230.325684,345.871643 232.637558,345.607239 236.128876,348.993103 
	C248.856583,361.336365 264.045837,367.349243 281.950500,365.885712 
	C286.130066,365.544067 290.198914,364.949921 293.964142,362.959015 
	C303.391327,357.974152 304.450928,346.613464 296.033722,339.938141 
	C288.715576,334.134369 279.988342,331.226837 271.310059,328.309021 
	C258.816345,324.108337 246.465439,319.667084 235.607071,311.897644 
	C218.826370,299.890656 212.932587,283.454590 214.284637,263.241394 
	C216.235641,234.073822 240.486359,216.195236 267.482880,212.636871 
	C289.339569,209.755997 310.256775,212.246552 329.964874,222.656479 
	C335.300629,225.474869 340.261353,228.763870 344.704712,232.856506 
	C349.734467,237.489212 349.778748,237.788940 344.873657,242.878540 
z"/>
</svg>